<svg width="121" height="56" viewBox="0 0 121 56" fill="none" xmlns="http://www.w3.org/2000/svg">
<g clip-path="url(#clip0_3_229)">
<path d="M115.65 37.09C117.74 22.88 106.04 15.63 102.27 14.17C94.7499 -0.0500278 76.5499 0.709972 71.7599 3.71997C66.5399 -0.0500276 63.3899 -2.76505e-05 60.4799 -2.76505e-05C57.5699 -2.76505e-05 54.4199 -0.0500276 49.1899 3.71997C44.4099 0.709972 26.1999 -0.0500278 18.6699 14.17C14.9099 15.63 3.19994 22.88 5.28994 37.09C-1.82007 39.74 -0.840065 50.88 2.77994 55.76H118.15C121.77 50.88 122.75 39.74 115.64 37.09H115.65ZM8.59994 38.15C8.58994 38.23 8.55993 38.31 8.52993 38.39C8.49994 38.47 8.45994 38.54 8.41994 38.61C8.36994 38.68 8.31994 38.75 8.25994 38.8C8.19993 38.85 8.13993 38.91 8.06993 38.96C7.99994 39 7.91994 39.05 7.84994 39.08C7.76994 39.11 7.68994 39.14 7.60994 39.15C7.52994 39.17 7.43994 39.17 7.35994 39.17C7.27994 39.17 7.18994 39.17 7.10994 39.15C7.02994 39.13 6.94993 39.11 6.86994 39.08C6.78994 39.05 6.71994 39.01 6.64994 38.96C6.57994 38.92 6.51994 38.86 6.45994 38.8C6.39994 38.74 6.34994 38.68 6.29994 38.61C6.24994 38.54 6.21993 38.47 6.17993 38.39C6.14993 38.31 6.11994 38.23 6.10994 38.15C6.09994 38.07 6.08994 37.98 6.08994 37.9C6.08994 37.56 6.21994 37.24 6.45994 37C6.74994 36.71 7.19994 36.57 7.60994 36.65C7.68994 36.66 7.76994 36.69 7.84994 36.72C7.92993 36.75 7.99994 36.79 8.06993 36.84C8.13993 36.88 8.19993 36.94 8.25994 37C8.49994 37.24 8.62994 37.57 8.62994 37.9C8.62994 37.98 8.61994 38.07 8.59994 38.15ZM12.4699 39.17C11.7699 39.17 11.1999 38.6 11.1999 37.9C11.1999 37.2 11.7699 36.62 12.4699 36.62C13.1699 36.62 13.7399 37.19 13.7399 37.9C13.7399 38.61 13.1699 39.17 12.4699 39.17ZM18.8399 38.15C18.8199 38.23 18.7999 38.31 18.7699 38.39C18.7399 38.47 18.6999 38.54 18.6499 38.61C18.6099 38.68 18.5499 38.75 18.4899 38.8C18.4299 38.85 18.3699 38.91 18.2999 38.96C18.2299 39 18.1599 39.05 18.0799 39.08C17.9999 39.11 17.9199 39.14 17.8399 39.15C17.7599 39.17 17.6699 39.17 17.5899 39.17C17.5099 39.17 17.4199 39.17 17.3399 39.15C17.2599 39.13 17.1799 39.11 17.0999 39.08C17.0199 39.05 16.9499 39.01 16.8799 38.96C16.8099 38.92 16.7499 38.86 16.6899 38.8C16.6299 38.74 16.5799 38.68 16.5299 38.61C16.4899 38.54 16.4399 38.47 16.4099 38.39C16.3799 38.31 16.3499 38.23 16.3399 38.15C16.3199 38.07 16.3199 37.98 16.3199 37.9C16.3199 37.56 16.4499 37.24 16.6899 37C16.7499 36.94 16.8099 36.89 16.8799 36.84C16.9499 36.79 17.0199 36.75 17.0999 36.72C17.1799 36.69 17.2599 36.66 17.3399 36.65C17.7499 36.57 18.1899 36.7 18.4899 37C18.7299 37.24 18.8599 37.57 18.8599 37.9C18.8599 37.98 18.8599 38.07 18.8399 38.15ZM21.7399 16.32C21.6799 16.38 21.6199 16.43 21.5499 16.48C21.4799 16.52 21.4099 16.56 21.3299 16.6C21.2499 16.63 21.1699 16.66 21.0899 16.67C21.0099 16.69 20.9199 16.69 20.8399 16.69C20.4999 16.69 20.1799 16.55 19.9399 16.32C19.6999 16.08 19.5699 15.76 19.5699 15.42C19.5699 15.34 19.5699 15.25 19.5899 15.17C19.6099 15.09 19.6299 15.01 19.6599 14.93C19.6899 14.85 19.7299 14.78 19.7799 14.71C19.8299 14.64 19.8799 14.58 19.9399 14.52C20.2299 14.23 20.6699 14.09 21.0899 14.17C21.1699 14.19 21.2499 14.21 21.3299 14.25C21.4099 14.28 21.4799 14.32 21.5499 14.36C21.6199 14.41 21.6799 14.46 21.7399 14.52C21.7999 14.58 21.8499 14.64 21.8999 14.71C21.9499 14.78 21.9899 14.86 22.0199 14.93C22.0499 15.01 22.0799 15.09 22.0899 15.17C22.1099 15.25 22.1099 15.34 22.1099 15.42C22.1099 15.76 21.9799 16.08 21.7399 16.32ZM26.2799 18.81C26.0399 19.2 25.6199 19.41 25.1999 19.41C24.9699 19.41 24.7399 19.35 24.5299 19.22C23.9399 18.85 23.7499 18.07 24.1299 17.47C24.4999 16.87 25.2799 16.69 25.8799 17.06C26.4799 17.43 26.6599 18.22 26.2899 18.82L26.2799 18.81ZM30.4599 21.76C30.2199 22 29.8899 22.13 29.5599 22.13C29.4799 22.13 29.3899 22.13 29.3099 22.11C29.2299 22.09 29.1499 22.07 29.0699 22.04C28.9899 22.01 28.9199 21.97 28.8499 21.92C28.7799 21.88 28.7199 21.82 28.6599 21.76C28.4199 21.52 28.2899 21.19 28.2899 20.86C28.2899 20.78 28.2999 20.69 28.3099 20.61C28.3299 20.53 28.3499 20.45 28.3799 20.37C28.4099 20.29 28.4499 20.22 28.4999 20.15C28.5499 20.08 28.5999 20.01 28.6599 19.96C28.7199 19.91 28.7799 19.85 28.8499 19.8C28.9199 19.75 28.9899 19.71 29.0699 19.68C29.1499 19.65 29.2299 19.62 29.3099 19.61C29.4799 19.58 29.6499 19.58 29.8099 19.61C29.8899 19.63 29.9699 19.65 30.0499 19.68C30.1299 19.71 30.1999 19.75 30.2699 19.8C30.3399 19.84 30.3999 19.9 30.4599 19.96C30.5199 20.02 30.5699 20.08 30.6199 20.15C30.6699 20.22 30.6999 20.29 30.7399 20.37C30.7699 20.45 30.7999 20.53 30.8099 20.61C30.8199 20.69 30.8299 20.78 30.8299 20.86C30.8299 21.2 30.6899 21.52 30.4599 21.76ZM48.8899 6.42997C48.6499 6.18997 48.5199 5.85997 48.5199 5.52997C48.5199 5.44997 48.5199 5.35997 48.5399 5.27997C48.5599 5.19997 48.5799 5.11997 48.6099 5.03997C48.6399 4.95997 48.6799 4.88997 48.7299 4.81997C48.7699 4.74997 48.8299 4.68997 48.8899 4.62997C49.1899 4.33997 49.6299 4.19997 50.0399 4.27997C50.1199 4.29997 50.1999 4.31997 50.2799 4.34997C50.3599 4.37997 50.4299 4.41997 50.4999 4.46997C50.5699 4.51997 50.6299 4.56997 50.6899 4.62997C50.7499 4.68997 50.7999 4.74997 50.8499 4.81997C50.8999 4.88997 50.9399 4.95997 50.9699 5.03997C50.9999 5.11997 51.0299 5.19997 51.0399 5.27997C51.0599 5.35997 51.0599 5.44997 51.0599 5.52997C51.0599 5.86997 50.9299 6.18997 50.6899 6.42997C50.6299 6.48997 50.5699 6.53997 50.4999 6.58997C50.4299 6.62997 50.3599 6.66997 50.2799 6.70997C50.1999 6.73997 50.1199 6.76997 50.0399 6.77997C49.9599 6.78997 49.8699 6.79997 49.7899 6.79997C49.7099 6.79997 49.6199 6.78997 49.5399 6.77997C49.4599 6.75997 49.3799 6.73997 49.2999 6.70997C49.2199 6.67997 49.1499 6.63997 49.0799 6.58997C49.0099 6.53997 48.9499 6.48997 48.8899 6.42997ZM49.2699 9.45997C49.1399 8.76997 49.5799 8.09997 50.2799 7.96997C50.9699 7.83997 51.6399 8.27997 51.7699 8.96997C51.8999 9.65997 51.4599 10.33 50.7699 10.47C50.6899 10.49 50.5999 10.49 50.5199 10.49C49.9299 10.49 49.3899 10.07 49.2699 9.45997ZM52.1399 13.81C52.0799 13.87 52.0199 13.92 51.9499 13.97C51.8799 14.02 51.8099 14.06 51.7299 14.09C51.6499 14.12 51.5699 14.15 51.4899 14.16C51.4099 14.18 51.3199 14.19 51.2399 14.19C51.1599 14.19 51.0699 14.18 50.9899 14.16C50.9099 14.15 50.8299 14.12 50.7499 14.09C50.6699 14.06 50.5999 14.02 50.5299 13.97C50.4599 13.93 50.3999 13.87 50.3399 13.81C50.0999 13.57 49.9699 13.24 49.9699 12.91C49.9699 12.83 49.9799 12.74 49.9899 12.66C50.0099 12.58 50.0299 12.5 50.0599 12.42C50.0899 12.34 50.1299 12.27 50.1799 12.2C50.2299 12.13 50.2799 12.07 50.3399 12.01C50.3999 11.95 50.4599 11.9 50.5299 11.85C50.5999 11.8 50.6699 11.76 50.7499 11.73C50.8299 11.7 50.9099 11.67 50.9899 11.66C51.1599 11.63 51.3299 11.63 51.4899 11.66C51.5699 11.68 51.6499 11.7 51.7299 11.73C51.8099 11.76 51.8799 11.8 51.9499 11.85C52.0199 11.89 52.0799 11.95 52.1399 12.01C52.1999 12.07 52.2499 12.13 52.2999 12.2C52.3399 12.27 52.3799 12.34 52.4199 12.42C52.4499 12.5 52.4799 12.58 52.4899 12.66C52.4999 12.74 52.5099 12.83 52.5099 12.91C52.5099 13.25 52.3699 13.57 52.1399 13.81ZM70.9599 13.16C70.9399 13.24 70.9199 13.32 70.8899 13.4C70.8599 13.48 70.8199 13.55 70.7699 13.62C70.7199 13.69 70.6699 13.76 70.6099 13.81C70.5499 13.87 70.4899 13.92 70.4199 13.97C70.3499 14.02 70.2799 14.06 70.1999 14.09C70.1199 14.12 70.0399 14.15 69.9599 14.16C69.8799 14.18 69.7899 14.19 69.7099 14.19C69.6299 14.19 69.5399 14.18 69.4599 14.16C69.3799 14.15 69.2999 14.12 69.2199 14.09C69.1399 14.06 69.0699 14.02 68.9999 13.97C68.9299 13.93 68.8699 13.87 68.8099 13.81C68.5699 13.57 68.4399 13.24 68.4399 12.91C68.4399 12.83 68.4399 12.74 68.4599 12.66C68.4799 12.58 68.4999 12.5 68.5299 12.42C68.5599 12.34 68.5999 12.27 68.6499 12.2C68.6899 12.13 68.7499 12.07 68.8099 12.01C69.1099 11.71 69.5499 11.58 69.9599 11.66C70.0399 11.68 70.1199 11.7 70.1999 11.73C70.2799 11.76 70.3499 11.8 70.4199 11.85C70.4899 11.89 70.5499 11.95 70.6099 12.01C70.6699 12.07 70.7199 12.13 70.7699 12.2C70.8099 12.27 70.8599 12.34 70.8899 12.42C70.9199 12.5 70.9499 12.58 70.9599 12.66C70.9799 12.74 70.9799 12.83 70.9799 12.91C70.9799 12.99 70.9799 13.08 70.9599 13.16ZM71.6799 9.45997C71.5599 10.07 71.0299 10.49 70.4299 10.49C70.3499 10.49 70.2699 10.48 70.1799 10.47C69.4899 10.33 69.0399 9.65997 69.1699 8.96997C69.2999 8.27997 69.9799 7.82997 70.6699 7.96997C71.3599 8.09997 71.8099 8.77997 71.6699 9.45997H71.6799ZM72.0599 6.42997C71.9999 6.48997 71.9399 6.53997 71.8699 6.58997C71.7999 6.62997 71.7299 6.66997 71.6499 6.70997C71.5699 6.73997 71.4899 6.76997 71.4099 6.77997C71.3299 6.78997 71.2499 6.79997 71.1599 6.79997C71.0699 6.79997 70.9899 6.78997 70.9099 6.77997C70.8299 6.75997 70.7499 6.73997 70.6699 6.70997C70.5899 6.67997 70.5199 6.63997 70.4499 6.58997C70.3799 6.53997 70.3099 6.48997 70.2599 6.42997C70.0199 6.18997 69.8899 5.85997 69.8899 5.52997C69.8899 5.44997 69.8999 5.35997 69.9199 5.27997C69.9299 5.19997 69.9599 5.11997 69.9899 5.03997C70.0199 4.95997 70.0599 4.88997 70.0999 4.81997C70.1499 4.74997 70.1999 4.68997 70.2599 4.62997C70.4999 4.38997 70.8199 4.25997 71.1599 4.25997C71.4999 4.25997 71.8199 4.39997 72.0599 4.62997C72.1199 4.68997 72.1699 4.74997 72.2199 4.81997C72.2599 4.88997 72.2999 4.95997 72.3399 5.03997C72.3699 5.11997 72.3999 5.19997 72.4099 5.27997C72.4199 5.35997 72.4299 5.44997 72.4299 5.52997C72.4299 5.85997 72.2999 6.18997 72.0599 6.42997ZM92.2899 21.76C92.2299 21.82 92.1699 21.87 92.0999 21.92C92.0299 21.97 91.9599 22.01 91.8799 22.04C91.7999 22.07 91.7199 22.1 91.6399 22.11C91.5599 22.13 91.4699 22.13 91.3899 22.13C91.3099 22.13 91.2199 22.13 91.1399 22.11C91.0599 22.09 90.9799 22.07 90.8999 22.04C90.8199 22.01 90.7499 21.97 90.6799 21.92C90.6099 21.88 90.5399 21.82 90.4799 21.76C90.2399 21.52 90.1099 21.19 90.1099 20.86C90.1099 20.78 90.1099 20.69 90.1299 20.61C90.1499 20.53 90.1699 20.45 90.1999 20.37C90.2299 20.29 90.2699 20.22 90.3199 20.15C90.3699 20.08 90.4199 20.01 90.4799 19.96C90.7199 19.72 91.0499 19.59 91.3799 19.59C91.7099 19.59 92.0399 19.73 92.2799 19.96C92.3399 20.02 92.3899 20.08 92.4399 20.15C92.4799 20.22 92.5299 20.29 92.5599 20.37C92.5899 20.45 92.6199 20.53 92.6299 20.61C92.6499 20.69 92.6499 20.78 92.6499 20.86C92.6499 21.2 92.5199 21.52 92.2799 21.76H92.2899ZM96.4199 19.22C96.2099 19.35 95.9799 19.41 95.7499 19.41C95.3199 19.41 94.9099 19.2 94.6699 18.81C94.2999 18.21 94.4799 17.43 95.0699 17.05C95.6699 16.68 96.4499 16.86 96.8299 17.46C97.1999 18.06 97.0199 18.84 96.4199 19.21V19.22ZM101.01 16.32C100.77 16.56 100.44 16.69 100.11 16.69C100.02 16.69 99.9399 16.69 99.8599 16.67C99.7799 16.65 99.6999 16.63 99.6199 16.6C99.5399 16.57 99.4699 16.53 99.3999 16.48C99.3299 16.43 99.2699 16.38 99.2099 16.32C98.9699 16.08 98.8399 15.76 98.8399 15.42C98.8399 15.34 98.8399 15.25 98.8599 15.17C98.8799 15.09 98.8999 15.01 98.9299 14.93C98.9599 14.85 98.9999 14.78 99.0499 14.71C99.0999 14.64 99.1499 14.58 99.2099 14.52C99.2699 14.46 99.3299 14.41 99.3999 14.36C99.4699 14.31 99.5399 14.28 99.6199 14.25C99.6999 14.22 99.7799 14.19 99.8599 14.17C100.27 14.09 100.71 14.23 101.01 14.52C101.07 14.58 101.12 14.64 101.17 14.71C101.21 14.78 101.25 14.86 101.28 14.93C101.31 15.01 101.34 15.09 101.36 15.17C101.37 15.25 101.38 15.34 101.38 15.42C101.38 15.76 101.24 16.08 101.01 16.32ZM104.61 38.15C104.6 38.23 104.57 38.31 104.54 38.39C104.51 38.47 104.47 38.54 104.42 38.61C104.38 38.68 104.32 38.75 104.26 38.8C104.2 38.85 104.14 38.91 104.07 38.96C104 39.01 103.92 39.05 103.85 39.08C103.77 39.11 103.69 39.14 103.61 39.15C103.53 39.16 103.44 39.17 103.36 39.17C103.28 39.17 103.19 39.17 103.11 39.15C103.03 39.13 102.95 39.11 102.87 39.08C102.79 39.05 102.72 39.01 102.65 38.96C102.58 38.91 102.51 38.86 102.46 38.8C102.41 38.74 102.35 38.68 102.3 38.61C102.26 38.54 102.21 38.47 102.18 38.39C102.15 38.31 102.12 38.23 102.11 38.15C102.09 38.07 102.09 37.98 102.09 37.9C102.09 37.56 102.23 37.24 102.46 37C102.69 36.76 103.02 36.63 103.36 36.63C103.7 36.63 104.02 36.77 104.26 37C104.5 37.24 104.63 37.57 104.63 37.9C104.63 37.98 104.62 38.07 104.6 38.15H104.61ZM108.48 39.17C107.78 39.17 107.21 38.6 107.21 37.9C107.21 37.2 107.78 36.62 108.48 36.62C109.18 36.62 109.75 37.19 109.75 37.9C109.75 38.61 109.18 39.17 108.48 39.17ZM114.85 38.15C114.83 38.23 114.81 38.31 114.78 38.39C114.75 38.47 114.71 38.54 114.66 38.61C114.62 38.68 114.56 38.75 114.5 38.8C114.44 38.85 114.38 38.91 114.31 38.96C114.24 39 114.17 39.05 114.09 39.08C114.01 39.11 113.93 39.14 113.85 39.15C113.77 39.17 113.68 39.17 113.6 39.17C113.52 39.17 113.43 39.17 113.35 39.15C113.27 39.13 113.19 39.11 113.11 39.08C113.03 39.05 112.96 39.01 112.89 38.96C112.82 38.92 112.75 38.86 112.7 38.8C112.65 38.74 112.59 38.68 112.54 38.61C112.5 38.54 112.45 38.47 112.42 38.39C112.39 38.31 112.36 38.23 112.35 38.15C112.33 38.07 112.33 37.98 112.33 37.9C112.33 37.56 112.47 37.24 112.7 37C112.76 36.94 112.82 36.89 112.89 36.84C112.96 36.79 113.04 36.75 113.11 36.72C113.19 36.69 113.27 36.66 113.35 36.65C113.51 36.62 113.68 36.62 113.85 36.65C113.93 36.66 114.01 36.69 114.09 36.72C114.17 36.75 114.24 36.79 114.31 36.84C114.38 36.88 114.44 36.94 114.5 37C114.74 37.24 114.87 37.57 114.87 37.9C114.87 37.98 114.87 38.07 114.85 38.15Z" fill="#E22A00"/>
</g>
<defs>
<clipPath id="clip0_3_229">
<rect width="120.95" height="55.76" fill="white"/>
</clipPath>
</defs>
</svg>
